<svg width="196" height="217" viewBox="0 0 196 217" fill="none" xmlns="http://www.w3.org/2000/svg">
<path d="M186.618 36.4032C174.918 16.6014 153.651 4.67868 127.8 0.911735C133.165 3.90885 137.895 7.60861 141.923 11.9318C144.697 14.9137 147.147 18.1821 149.23 21.6818C155.509 32.2009 158.686 44.9141 158.619 58.7954C158.44 95.4656 136.057 140.573 88.1872 179.759L72.1788 163.695L47.0378 216.922L120.312 211.999L103.526 195.154C106.916 193.443 110.289 191.623 113.632 189.648C180.557 150.106 213.176 81.3516 186.619 36.4044L186.618 36.4032ZM142.126 25.9526C140.319 22.9295 138.225 20.1351 135.854 17.5911C126.402 7.44574 112.442 1.07681 93.8034 0.436956C69.1242 3.02214 42.5808 11.6864 17.3073 26.6192C11.1981 30.2289 5.61874 34.2224 0.0972559 38.2762C54.9914 13.2692 112.266 19.8584 133.668 56.0814C141.517 69.3646 143.515 84.9437 140.514 101.123C147.083 86.0867 150.257 71.6628 150.319 58.7466C150.381 46.1464 147.548 35.0208 142.127 25.9518L142.126 25.9526Z" fill="url(#paint0_linear_54_26)" fill-opacity="0.35"/>
<defs>
<linearGradient id="paint0_linear_54_26" x1="156" y1="14" x2="56" y2="224" gradientUnits="userSpaceOnUse">
<stop stop-color="white" stop-opacity="0"/>
<stop offset="1" stop-color="white"/>
</linearGradient>
</defs>
</svg>
