<svg width="467" height="467" viewBox="0 0 467 467" fill="none" xmlns="http://www.w3.org/2000/svg">
<g filter="url(#filter0_iiii_244_6)">
<circle cx="233.01" cy="233.99" r="233.01" fill="url(#paint0_linear_244_6)"/>
</g>
<g filter="url(#filter1_f_244_6)">
<circle cx="233.009" cy="233.99" r="131.929" stroke="url(#paint1_linear_244_6)" stroke-width="5"/>
</g>
<g filter="url(#filter2_dd_244_6)">
<path d="M163.085 292.84L91.6254 250.36C90.0654 249.4 88.4454 247.78 86.7654 245.5C85.2054 243.22 84.4254 240.4 84.4254 237.04C84.4254 232.6 85.3254 229.54 87.1254 227.86C89.0454 226.18 90.6054 224.98 91.8054 224.26L163.265 181.78C165.425 180.46 167.585 179.44 169.745 178.72C172.025 178 174.305 178.18 176.585 179.26C178.985 180.34 181.445 183.04 183.965 187.36C186.485 191.44 187.625 194.8 187.385 197.44C187.145 199.96 186.125 202.06 184.325 203.74C182.525 205.3 180.545 206.74 178.385 208.06L128.885 237.4L178.565 266.74C180.725 268.06 182.705 269.5 184.505 271.06C186.305 272.62 187.325 274.72 187.565 277.36C187.805 279.88 186.605 283.24 183.965 287.44C181.445 291.64 178.985 294.28 176.585 295.36C174.185 296.44 171.845 296.62 169.565 295.9C167.405 295.18 165.245 294.16 163.085 292.84ZM199.267 303.28C193.747 300.64 190.447 298 189.367 295.36C188.407 292.84 189.067 289.12 191.347 284.2L245.347 171.34C247.027 167.98 248.707 165.58 250.387 164.14C252.187 162.7 254.287 162.1 256.687 162.34C259.207 162.58 262.207 163.54 265.687 165.22C269.647 167.14 272.407 169 273.967 170.8C275.647 172.48 276.367 174.46 276.127 176.74C275.887 178.9 274.927 181.72 273.247 185.2L219.427 296.98C217.147 302.14 214.567 305.02 211.687 305.62C208.927 306.34 204.787 305.56 199.267 303.28ZM301.913 292.84C299.753 294.16 297.533 295.18 295.253 295.9C293.093 296.62 290.813 296.44 288.413 295.36C286.133 294.28 283.673 291.64 281.033 287.44C278.393 283.24 277.193 279.88 277.433 277.36C277.673 274.72 278.693 272.62 280.493 271.06C282.293 269.5 284.273 268.06 286.433 266.74L336.113 237.4L286.613 208.06C284.453 206.74 282.473 205.3 280.673 203.74C278.873 202.06 277.853 199.96 277.613 197.44C277.493 194.8 278.633 191.44 281.033 187.36C283.553 183.04 285.953 180.34 288.233 179.26C290.633 178.18 292.913 178 295.073 178.72C297.353 179.44 299.573 180.46 301.733 181.78L373.193 224.26C374.513 224.98 376.073 226.18 377.873 227.86C379.673 229.54 380.573 232.6 380.573 237.04C380.573 240.4 379.733 243.22 378.053 245.5C376.493 247.78 374.933 249.4 373.373 250.36L301.913 292.84Z" fill="url(#paint2_linear_244_6)"/>
</g>
<g filter="url(#filter3_f_244_6)">
<circle cx="233.009" cy="233.99" r="131.929" stroke="url(#paint3_linear_244_6)" stroke-width="5"/>
</g>
<defs>
<filter id="filter0_iiii_244_6" x="-20" y="-19.0194" width="506.02" height="506.019" filterUnits="userSpaceOnUse" color-interpolation-filters="sRGB">
<feFlood flood-opacity="0" result="BackgroundImageFix"/>
<feBlend mode="normal" in="SourceGraphic" in2="BackgroundImageFix" result="shape"/>
<feColorMatrix in="SourceAlpha" type="matrix" values="0 0 0 0 0 0 0 0 0 0 0 0 0 0 0 0 0 0 127 0" result="hardAlpha"/>
<feOffset dx="20" dy="20"/>
<feGaussianBlur stdDeviation="10"/>
<feComposite in2="hardAlpha" operator="arithmetic" k2="-1" k3="1"/>
<feColorMatrix type="matrix" values="0 0 0 0 1 0 0 0 0 0.299559 0 0 0 0 0 0 0 0 1 0"/>
<feBlend mode="normal" in2="shape" result="effect1_innerShadow_244_6"/>
<feColorMatrix in="SourceAlpha" type="matrix" values="0 0 0 0 0 0 0 0 0 0 0 0 0 0 0 0 0 0 127 0" result="hardAlpha"/>
<feOffset dx="10" dy="10"/>
<feGaussianBlur stdDeviation="11.5"/>
<feComposite in2="hardAlpha" operator="arithmetic" k2="-1" k3="1"/>
<feColorMatrix type="matrix" values="0 0 0 0 1 0 0 0 0 0.5625 0 0 0 0 0.375 0 0 0 1 0"/>
<feBlend mode="normal" in2="effect1_innerShadow_244_6" result="effect2_innerShadow_244_6"/>
<feColorMatrix in="SourceAlpha" type="matrix" values="0 0 0 0 0 0 0 0 0 0 0 0 0 0 0 0 0 0 127 0" result="hardAlpha"/>
<feOffset dx="-20" dy="-20"/>
<feGaussianBlur stdDeviation="10"/>
<feComposite in2="hardAlpha" operator="arithmetic" k2="-1" k3="1"/>
<feColorMatrix type="matrix" values="0 0 0 0 0 0 0 0 0 0 0 0 0 0 0 0 0 0 0.25 0"/>
<feBlend mode="normal" in2="effect2_innerShadow_244_6" result="effect3_innerShadow_244_6"/>
<feColorMatrix in="SourceAlpha" type="matrix" values="0 0 0 0 0 0 0 0 0 0 0 0 0 0 0 0 0 0 127 0" result="hardAlpha"/>
<feOffset dx="-8" dy="-8"/>
<feGaussianBlur stdDeviation="11"/>
<feComposite in2="hardAlpha" operator="arithmetic" k2="-1" k3="1"/>
<feColorMatrix type="matrix" values="0 0 0 0 0 0 0 0 0 0 0 0 0 0 0 0 0 0 0.25 0"/>
<feBlend mode="normal" in2="effect3_innerShadow_244_6" result="effect4_innerShadow_244_6"/>
</filter>
<filter id="filter1_f_244_6" x="76.5808" y="77.5616" width="312.857" height="312.857" filterUnits="userSpaceOnUse" color-interpolation-filters="sRGB">
<feFlood flood-opacity="0" result="BackgroundImageFix"/>
<feBlend mode="normal" in="SourceGraphic" in2="BackgroundImageFix" result="shape"/>
<feGaussianBlur stdDeviation="11" result="effect1_foregroundBlur_244_6"/>
</filter>
<filter id="filter2_dd_244_6" x="78.4253" y="155.98" width="311.148" height="159.72" filterUnits="userSpaceOnUse" color-interpolation-filters="sRGB">
<feFlood flood-opacity="0" result="BackgroundImageFix"/>
<feColorMatrix in="SourceAlpha" type="matrix" values="0 0 0 0 0 0 0 0 0 0 0 0 0 0 0 0 0 0 127 0" result="hardAlpha"/>
<feOffset dx="-2" dy="-2"/>
<feGaussianBlur stdDeviation="2"/>
<feComposite in2="hardAlpha" operator="out"/>
<feColorMatrix type="matrix" values="0 0 0 0 1 0 0 0 0 1 0 0 0 0 1 0 0 0 0.35 0"/>
<feBlend mode="normal" in2="BackgroundImageFix" result="effect1_dropShadow_244_6"/>
<feColorMatrix in="SourceAlpha" type="matrix" values="0 0 0 0 0 0 0 0 0 0 0 0 0 0 0 0 0 0 127 0" result="hardAlpha"/>
<feOffset dx="2" dy="2"/>
<feGaussianBlur stdDeviation="3.5"/>
<feComposite in2="hardAlpha" operator="out"/>
<feColorMatrix type="matrix" values="0 0 0 0 0 0 0 0 0 0 0 0 0 0 0 0 0 0 1 0"/>
<feBlend mode="normal" in2="effect1_dropShadow_244_6" result="effect2_dropShadow_244_6"/>
<feBlend mode="normal" in="SourceGraphic" in2="effect2_dropShadow_244_6" result="shape"/>
</filter>
<filter id="filter3_f_244_6" x="76.5808" y="77.5616" width="312.857" height="312.857" filterUnits="userSpaceOnUse" color-interpolation-filters="sRGB">
<feFlood flood-opacity="0" result="BackgroundImageFix"/>
<feBlend mode="normal" in="SourceGraphic" in2="BackgroundImageFix" result="shape"/>
<feGaussianBlur stdDeviation="11" result="effect1_foregroundBlur_244_6"/>
</filter>
<linearGradient id="paint0_linear_244_6" x1="388.723" y1="399.786" x2="73.9358" y2="84.9985" gradientUnits="userSpaceOnUse">
<stop stop-color="#F34900"/>
<stop offset="1" stop-color="#BB3800"/>
</linearGradient>
<linearGradient id="paint1_linear_244_6" x1="141.871" y1="141.713" x2="234.149" y2="233.99" gradientUnits="userSpaceOnUse">
<stop stop-color="#575757"/>
<stop offset="1" stop-color="#575757" stop-opacity="0"/>
</linearGradient>
<linearGradient id="paint2_linear_244_6" x1="146.552" y1="53.5" x2="220.727" y2="436.286" gradientUnits="userSpaceOnUse">
<stop stop-color="#F92424"/>
<stop offset="1" stop-color="#28307E"/>
</linearGradient>
<linearGradient id="paint3_linear_244_6" x1="320.388" y1="322.489" x2="233.009" y2="235.111" gradientUnits="userSpaceOnUse">
<stop stop-color="white"/>
<stop offset="1" stop-color="white" stop-opacity="0"/>
</linearGradient>
</defs>
</svg>
