<svg width="422" height="160" viewBox="0 0 422 160" fill="none" xmlns="http://www.w3.org/2000/svg">
<path d="M298.364 112.455C293.509 112.455 290.491 114.873 289.273 119.727C291.091 117.309 293.218 116.4 295.636 117C297.018 117.345 298.018 118.345 299.109 119.455C300.891 121.273 302.909 123.364 307.455 123.364C312.309 123.364 315.327 120.945 316.546 116.091C314.727 118.509 312.6 119.418 310.182 118.818C308.8 118.473 307.818 117.473 306.709 116.364C304.927 114.545 302.909 112.455 298.364 112.455ZM289.273 123.364C284.418 123.364 281.4 125.782 280.182 130.636C282 128.218 284.127 127.309 286.546 127.909C287.927 128.255 288.909 129.255 290.018 130.364C291.8 132.182 293.818 134.273 298.364 134.273C303.218 134.273 306.236 131.855 307.455 127C305.636 129.418 303.509 130.327 301.091 129.727C299.709 129.382 298.727 128.382 297.618 127.273C295.836 125.455 293.818 123.364 289.273 123.364Z" fill="white" fill-opacity="0.35"/>
<rect x="263" y="88" width="70.7273" height="70.7273" rx="11" stroke="white" stroke-opacity="0.35" stroke-width="2"/>
<g clip-path="url(#clip0_49_2)">
<path d="M377.276 14.5454H381.964V16.5054H379.236V18.4654H381.964V20.4254H377.276V14.5454ZM382.9 14.5454H387.589V16.2509H384.862V16.5909H387.589V20.5109H382.9V18.7218H385.627V18.38H382.9V14.5454ZM388.527 14.5454H393.213V16.2509H390.486V16.5909H393.213V20.5109H388.527V18.7218H391.255V18.38H388.527V14.5454Z" fill="white" fill-opacity="0.35"/>
<path fill-rule="evenodd" clip-rule="evenodd" d="M385.438 58.1818L372.813 54.6764L369.091 23.1218H401.818L398.098 54.6727L385.438 58.1818ZM376.449 37.4055L376.796 41.2746H390.209L389.76 46.2927L385.444 47.46H385.44L381.131 46.2964L380.855 43.2109H376.969L377.511 49.2873L385.438 51.4873L393.378 49.2873L394.346 38.4436L394.44 37.4055L395.138 29.5709H375.753L376.106 33.4418H390.898L390.546 37.4055H376.449Z" fill="white" fill-opacity="0.35"/>
</g>
<rect x="350.091" y="1" width="70.7273" height="70.7273" rx="11" stroke="white" stroke-opacity="0.35" stroke-width="2"/>
<g clip-path="url(#clip1_49_2)">
<mask id="mask0_49_2" style="mask-type:luminance" maskUnits="userSpaceOnUse" x="276" y="14" width="44" height="45">
<path d="M276.364 14.5454H320V58.1818H276.364V14.5454Z" fill="white"/>
</mask>
<g mask="url(#mask0_49_2)">
<path d="M285.6 14.5454H287.567V16.489H289.367V14.5454H291.335V20.429H289.367V18.46H287.567V20.429H285.602L285.6 14.5454ZM293.92 16.4963H292.189V14.5454H297.62V16.4963H295.887V20.429H293.92V16.4963ZM298.482 14.5454H300.533L301.795 16.6127L303.055 14.5454H305.106V20.429H303.147V17.5127L301.795 19.6054H301.76L300.406 17.5145V20.429H298.482V14.5454ZM306.084 14.5454H308.053V18.4854H310.816V20.4309H306.084V14.5454Z" fill="white" fill-opacity="0.35"/>
<path fill-rule="evenodd" clip-rule="evenodd" d="M285.538 54.6764L281.818 23.1218H314.546L310.824 54.6727L298.164 58.1818L285.538 54.6764ZM293.06 37.4036L292.707 33.44H307.516L307.862 29.5709H288.48L289.524 41.2746H302.936L302.487 46.2927L298.171 47.46H298.167L293.858 46.2964L293.582 43.2109H289.695L290.236 49.2873L298.164 51.4873L306.104 49.2873L307.071 38.4436L307.166 37.4055L293.06 37.4036Z" fill="white" fill-opacity="0.35"/>
</g>
</g>
<rect x="262.818" y="1" width="70.7273" height="70.7273" rx="11" stroke="white" stroke-opacity="0.35" stroke-width="2"/>
<path d="M216.85 44.5902C215.709 46.181 214.466 47.6987 213.129 49.1342C216.693 52.525 220.005 54.1128 221.844 53.0703C223.682 52.0299 223.935 48.4218 222.723 43.7023C220.906 44.0992 218.934 44.4022 216.85 44.5902ZM214.06 44.7699C212.445 44.8355 210.828 44.8355 209.213 44.7699C210.014 45.7978 210.828 46.7504 211.635 47.6175C212.445 46.7504 213.256 45.7998 214.06 44.7699ZM224.796 28.2755C230.473 29.8716 234.182 32.525 234.182 35.7277C234.182 38.9305 230.475 41.5838 224.798 43.18C226.225 48.8 225.735 53.2751 222.909 54.8754C220.082 56.4778 215.885 54.656 211.635 50.6322C207.388 54.6539 203.191 56.4778 200.364 54.8754C197.535 53.2751 197.047 48.8 198.475 43.18C192.798 41.5838 189.091 38.9305 189.091 35.7277C189.091 32.525 192.798 29.8716 198.475 28.2755C197.047 22.6555 197.537 18.1804 200.364 16.578C203.191 14.9776 207.388 16.7994 211.635 20.8232C215.885 16.7994 220.082 14.9776 222.909 16.578C225.735 18.1804 226.225 22.6555 224.798 28.2755M222.725 27.7574C223.94 23.0357 223.684 19.4297 221.846 18.3872C220.007 17.3468 216.695 18.9346 213.133 22.3254C214.47 23.7611 215.712 25.2789 216.852 26.8694C218.936 27.0575 220.908 27.3583 222.725 27.7574ZM200.55 43.6981C199.337 48.4197 199.591 52.0257 201.431 53.0661C203.27 54.1066 206.582 52.5209 210.144 49.1301C208.807 47.6939 207.565 46.1754 206.425 44.5839C204.45 44.4107 202.488 44.1142 200.552 43.696M209.218 26.6856C210.832 26.62 212.449 26.62 214.064 26.6856C213.296 25.7046 212.486 24.7566 211.635 23.8443C210.826 24.7134 210.016 25.6661 209.213 26.6939M206.423 26.8757C207.563 25.2849 208.805 23.7672 210.142 22.3317C206.58 18.9388 203.268 17.351 201.431 18.3914C199.593 19.4339 199.337 23.042 200.552 27.7615C202.369 27.3646 204.341 27.0637 206.425 26.8736M215.67 42.5845C217.187 40.4021 218.536 38.1115 219.705 35.7319C218.537 33.3523 217.189 31.0617 215.672 28.8793C212.987 28.6822 210.29 28.6822 207.605 28.8793C206.087 31.0616 204.738 33.3522 203.568 35.7319C204.737 38.1114 206.086 40.402 207.603 42.5845C210.288 42.7814 212.985 42.7814 215.67 42.5845ZM218.407 42.3088C219.718 42.1416 220.964 41.9285 222.135 41.6757C221.752 40.4969 221.317 39.3349 220.832 38.193C220.082 39.597 219.274 40.9701 218.41 42.3088M204.868 29.153C203.557 29.3201 202.311 29.5353 201.14 29.7881C201.502 30.9079 201.938 32.0737 202.445 33.2708C203.195 31.8667 204.003 30.4936 204.868 29.155M201.14 41.6778C202.311 41.9306 203.557 42.1437 204.868 42.3108C204.003 40.9722 203.195 39.5991 202.445 38.1951C201.959 39.337 201.523 40.499 201.14 41.6778ZM199.056 41.166C199.614 39.4235 200.334 37.5976 201.208 35.734C200.374 33.9701 199.655 32.1557 199.056 30.302C194.282 31.6308 191.223 33.6531 191.223 35.734C191.223 37.8149 194.282 39.8351 199.056 41.166ZM222.137 29.7881C220.905 29.5236 219.661 29.3117 218.41 29.153C219.274 30.4916 220.082 31.8647 220.832 33.2687C221.339 32.0737 221.773 30.9079 222.137 29.7881ZM224.219 30.2999C223.665 32.0423 222.941 33.8683 222.067 35.7319C222.941 37.5955 223.665 39.4215 224.219 41.1639C228.995 39.833 232.054 37.8128 232.054 35.7319C232.054 33.651 228.995 31.6308 224.219 30.2999ZM211.635 39.6575C211.099 39.6747 210.564 39.5859 210.063 39.3963C209.562 39.2068 209.105 38.9204 208.719 38.5541C208.334 38.1879 208.027 37.7494 207.817 37.2645C207.608 36.7797 207.5 36.2585 207.5 35.7319C207.5 35.2053 207.608 34.6841 207.817 34.1993C208.027 33.7144 208.334 33.2759 208.719 32.9097C209.105 32.5434 209.562 32.257 210.063 32.0675C210.564 31.8779 211.099 31.7891 211.635 31.8063C212.674 31.8395 213.659 32.2677 214.382 33.0002C215.105 33.7328 215.51 34.7124 215.51 35.7319C215.51 36.7514 215.105 37.731 214.382 38.4636C213.659 39.1961 212.674 39.6243 211.635 39.6575Z" fill="white" fill-opacity="0.35"/>
<rect x="175.545" y="1" width="70.7273" height="70.7273" rx="11" stroke="white" stroke-opacity="0.35" stroke-width="2"/>
<path d="M105.455 20H111.818L123.636 41.8182L135.455 20H141.818L123.636 52.7273L105.455 20ZM113.636 20H119.091L123.636 28.3273L128.182 20H133.636L123.636 38.3273L113.636 20Z" fill="#CCCCCC" fill-opacity="0.35"/>
<rect x="88.2727" y="1" width="70.7273" height="70.7273" rx="11" stroke="white" stroke-opacity="0.35" stroke-width="2"/>
<g clip-path="url(#clip2_49_2)">
<path d="M212.364 111.545C200.129 111.545 190.545 116.736 190.545 123.364C190.545 129.991 200.129 135.182 212.364 135.182C224.598 135.182 234.182 129.991 234.182 123.364C234.182 116.736 224.598 111.545 212.364 111.545ZM210.098 115.182H212.48L211.724 118.818H213.851C215.2 118.818 216.105 119.007 216.622 119.478C217.125 119.944 217.278 120.707 217.076 121.747L216.131 126.091H213.709L214.58 122.075C214.685 121.524 214.644 121.14 214.458 120.938C214.275 120.736 213.869 120.636 213.262 120.636H211.355L210.204 126.091H207.818L210.098 115.182ZM199.636 118.818H204.484C206.795 118.818 208.195 120.367 207.647 122.678C207.011 125.364 205.309 126.091 202.175 126.091H200.676L200.202 128.818H197.793L199.636 118.818ZM218.727 118.818H223.575C225.885 118.818 227.285 120.367 226.738 122.678C226.102 125.364 224.398 126.091 221.265 126.091H219.767L219.293 128.818H216.884L218.727 118.818ZM201.7 120.636L201.015 124.273H202.569C203.915 124.273 205.165 124.12 205.375 122.115C205.453 121.336 205.129 120.636 203.575 120.636H201.7ZM220.791 120.636L220.105 124.273H221.66C223.005 124.273 224.256 124.12 224.465 122.115C224.544 121.336 224.222 120.636 222.665 120.636H220.791Z" fill="white" fill-opacity="0.35"/>
</g>
<rect x="177" y="88" width="70.7273" height="70.7273" rx="11" stroke="white" stroke-opacity="0.35" stroke-width="2"/>
<g clip-path="url(#clip3_49_2)">
<path d="M145.535 111.418C145.549 111.475 145.557 111.54 145.557 111.595V120.964C145.558 121.083 145.526 121.201 145.466 121.304C145.406 121.408 145.32 121.493 145.216 121.553L137.354 126.084V135.054C137.354 135.174 137.323 135.291 137.263 135.395C137.203 135.498 137.117 135.584 137.013 135.643L120.6 145.089C120.562 145.11 120.521 145.127 120.479 145.138L120.436 145.16C120.322 145.189 120.203 145.189 120.089 145.16C120.071 145.155 120.055 145.148 120.04 145.138C120 145.126 119.962 145.11 119.926 145.089L103.52 135.643C103.416 135.584 103.329 135.499 103.268 135.395C103.207 135.292 103.174 135.174 103.173 135.054V106.951C103.173 106.894 103.186 106.83 103.201 106.774C103.208 106.752 103.215 106.738 103.223 106.716L103.265 106.61C103.272 106.588 103.294 106.575 103.308 106.553L103.372 106.467C103.395 106.453 103.416 106.436 103.436 106.418C103.465 106.396 103.485 106.375 103.514 106.36L111.717 101.637C111.821 101.577 111.939 101.546 112.058 101.546C112.178 101.546 112.295 101.577 112.399 101.637L120.61 106.36C120.638 106.374 120.659 106.396 120.68 106.418L120.751 106.467C120.772 106.494 120.791 106.523 120.809 106.553C120.822 106.566 120.844 106.588 120.858 106.61L120.9 106.716C120.907 106.738 120.922 106.752 120.922 106.774C120.942 106.83 120.952 106.891 120.95 106.951V124.501L127.782 120.567V111.597C127.785 111.516 127.802 111.437 127.833 111.362L127.875 111.256C127.889 111.227 127.91 111.214 127.924 111.192C127.946 111.163 127.96 111.135 127.981 111.114C128.003 111.094 128.03 111.079 128.052 111.065C128.073 111.042 128.097 111.023 128.123 111.008L136.334 106.284C136.436 106.221 136.554 106.188 136.675 106.188C136.795 106.188 136.913 106.221 137.015 106.284L145.219 111.008C145.248 111.021 145.268 111.043 145.297 111.065C145.319 111.079 145.339 111.094 145.361 111.114C145.383 111.135 145.403 111.163 145.425 111.192C145.439 111.214 145.46 111.227 145.467 111.256C145.489 111.291 145.496 111.327 145.51 111.362C145.523 111.376 145.531 111.398 145.538 111.42L145.535 111.418ZM144.185 120.565V112.782L141.316 114.429L137.354 116.716V124.5L144.185 120.565ZM135.99 134.656V126.864L132.083 129.087L120.946 135.451V143.314L135.99 134.656ZM104.534 108.136V134.656L119.576 143.314V135.451L111.713 130.997C111.685 130.984 111.664 130.962 111.642 130.94C111.62 130.926 111.593 130.911 111.578 130.891H111.571C111.55 130.869 111.536 130.842 111.514 130.82C111.5 130.798 111.479 130.778 111.465 130.749C111.449 130.722 111.437 130.693 111.43 130.663C111.416 130.635 111.401 130.614 111.394 130.585C111.387 130.557 111.38 130.521 111.38 130.486C111.374 130.457 111.367 130.437 111.367 130.408V112.07L107.404 109.783L104.534 108.136ZM112.055 103.015L105.224 106.95L112.055 110.884L118.887 106.95L112.055 103.015ZM115.613 127.576L119.576 125.289V108.137L116.707 109.785L112.737 112.071V129.223L115.613 127.576ZM136.672 107.66L129.832 111.594L136.672 115.528L143.504 111.594L136.672 107.66ZM135.99 116.716L129.15 112.782V120.565L133.113 122.852L135.989 124.5L135.99 116.716ZM120.259 134.266L135.295 125.686L128.47 121.752L113.441 130.403L120.259 134.266Z" fill="white" fill-opacity="0.35"/>
</g>
<rect x="89" y="88" width="70.7273" height="70.7273" rx="11" stroke="white" stroke-opacity="0.35" stroke-width="2"/>
<path d="M16 16V56.7273H56.7273V16H16ZM38.1644 47.7629C38.1644 51.7265 35.8371 53.536 32.4465 53.536C29.3833 53.536 27.6102 51.9549 26.7011 50.0364L29.8196 48.1542C30.4204 49.2175 30.9658 50.1178 32.2836 50.1178C33.5375 50.1178 34.3375 49.6262 34.3375 47.7091V34.6996H38.1644V47.7629ZM47.2175 53.536C43.6625 53.536 41.3629 51.8458 40.2444 49.6262L43.3629 47.8269C44.1818 49.1636 45.2538 50.1542 47.136 50.1542C48.7171 50.1542 49.7367 49.3629 49.7367 48.2633C49.7367 46.9542 48.6996 46.4902 46.9455 45.7178L45.9913 45.3091C43.2276 44.1367 41.4007 42.6545 41.4007 39.536C41.4007 36.6633 43.5913 34.4815 47.0007 34.4815C49.4371 34.4815 51.1825 35.3265 52.4378 37.5447L49.456 39.4545C48.8015 38.2822 48.0916 37.8182 46.992 37.8182C45.8749 37.8182 45.1651 38.528 45.1651 39.4545C45.1651 40.6007 45.8749 41.0633 47.52 41.7818L48.4742 42.1905C51.7295 43.5811 53.5564 45.0095 53.5564 48.208C53.5564 51.6451 50.8465 53.5345 47.2189 53.5345L47.2175 53.536Z" fill="#CCCCCC" fill-opacity="0.35"/>
<rect x="1" y="1" width="70.7273" height="70.7273" rx="11" stroke="white" stroke-opacity="0.35" stroke-width="2"/>
<defs>
<clipPath id="clip0_49_2">
<rect width="43.6364" height="43.6364" fill="white" transform="translate(363.636 14.5454)"/>
</clipPath>
<clipPath id="clip1_49_2">
<rect width="43.6364" height="43.6364" fill="white" transform="translate(276.364 14.5454)"/>
</clipPath>
<clipPath id="clip2_49_2">
<rect width="43.6364" height="43.6364" fill="white" transform="translate(190.545 101.545)"/>
</clipPath>
<clipPath id="clip3_49_2">
<rect width="43.6364" height="43.6364" fill="white" transform="translate(102.545 101.545)"/>
</clipPath>
</defs>
</svg>
