<svg width="162" height="73" viewBox="0 0 162 73" fill="none" xmlns="http://www.w3.org/2000/svg">
<rect x="90" y="1" width="70.7273" height="70.7273" rx="11" stroke="white" stroke-opacity="0.35" stroke-width="2"/>
<path fill-rule="evenodd" clip-rule="evenodd" d="M118.695 31.2263C118.003 31.2263 117.317 31.3627 116.677 31.6277C116.037 31.8927 115.456 32.2812 114.966 32.7709C114.476 33.2606 114.088 33.842 113.823 34.4818C113.558 35.1216 113.422 35.8074 113.422 36.4999C113.422 37.1925 113.558 37.8782 113.823 38.518C114.088 39.1579 114.476 39.7392 114.966 40.2289C115.456 40.7186 116.037 41.1071 116.677 41.3721C117.317 41.6371 118.003 41.7735 118.695 41.7735H123.969V36.6061C123.968 36.5353 123.968 36.4645 123.969 36.3938V31.2263H118.695ZM123.969 28.1638H118.695C117.296 28.1638 115.955 27.6081 114.965 26.6189C113.976 25.6297 113.42 24.2881 113.42 22.8891C113.42 21.4902 113.976 20.1486 114.965 19.1594C115.955 18.1702 117.296 17.6145 118.695 17.6145H123.969V28.1638ZM127.031 17.6145V28.1638H132.305C133.686 28.1366 135.001 27.569 135.968 26.5827C136.935 25.5965 137.477 24.2704 137.477 22.8891C137.477 21.5079 136.935 20.1818 135.968 19.1956C135.001 18.2093 133.686 17.6417 132.305 17.6145H127.031ZM132.305 31.2243C130.921 31.2241 129.592 31.7682 128.605 32.7391C127.619 33.7101 127.053 35.0301 127.031 36.4142V36.5836C127.048 37.6228 127.372 38.6339 127.961 39.4898C128.551 40.3457 129.38 41.0082 130.345 41.3943C131.31 41.7803 132.368 41.8726 133.385 41.6595C134.403 41.4464 135.334 40.9375 136.063 40.1967C136.792 39.4559 137.286 38.5162 137.483 37.4956C137.679 36.475 137.57 35.4191 137.168 34.4604C136.767 33.5018 136.091 32.6832 135.226 32.1074C134.36 31.5316 133.344 31.2244 132.305 31.2243ZM118.695 44.836C117.652 44.8356 116.631 45.1447 115.764 45.7242C114.896 46.3036 114.219 47.1274 113.82 48.0914C113.42 49.0553 113.315 50.1162 113.519 51.1397C113.722 52.1632 114.224 53.1034 114.962 53.8414C115.7 54.5795 116.64 55.0821 117.663 55.2859C118.687 55.4896 119.747 55.3852 120.712 54.986C121.676 54.5867 122.5 53.9105 123.08 53.0429C123.659 52.1753 123.969 51.1552 123.969 50.1117V44.836H118.695Z" fill="#CCCCCC" fill-opacity="0.35"/>
<rect x="1" y="1" width="70.7273" height="70.7273" rx="11" stroke="white" stroke-opacity="0.35" stroke-width="2"/>
<g clip-path="url(#clip0_49_4)">
<path d="M32.8271 30.3841C32.195 30.1279 31.5117 30.0254 30.8113 30.0425C30.3671 30.0425 29.9742 30.0424 29.6496 30.0595C29.3079 30.0424 29.0688 30.0595 28.9492 30.0766V35.8166C29.1883 35.8337 29.4104 35.8508 29.6154 35.8508H30.5208C31.1871 35.8508 31.8533 35.7483 32.4854 35.5433C33.0321 35.3895 33.5104 35.065 33.8863 34.6379C34.245 34.2108 34.4158 33.63 34.4158 32.8783C34.4329 32.3487 34.2963 31.8191 34.0229 31.3579C33.7381 30.9143 33.3192 30.5732 32.8271 30.3841ZM49.7396 16.5125H23.2604C19.2458 16.5125 16 19.7583 16 23.7729V49.2253C16 53.2399 19.2458 56.4857 23.2604 56.4857H49.7396C53.7542 56.4857 57 53.2399 57 49.2253V23.7729C57 19.7583 53.7542 16.5125 49.7396 16.5125ZM37.1133 36.4145C36.4317 37.3712 35.475 38.0887 34.3646 38.4987C33.2029 38.9258 31.9217 39.0795 30.5208 39.0795C30.1108 39.0795 29.8375 39.0795 29.6667 39.0625C29.4958 39.0454 29.2567 39.0454 28.9321 39.0454V44.5274C28.9492 44.647 28.8638 44.7512 28.7442 44.7683H25.43C25.2933 44.7683 25.225 44.6982 25.225 44.5445V26.9675C25.225 26.8479 25.2762 26.7795 25.3958 26.7795C25.6863 26.7795 25.9596 26.7795 26.3525 26.7625C26.7625 26.7454 27.1896 26.7454 27.6508 26.7283C28.1121 26.7112 28.6075 26.7112 29.1371 26.6941C29.6667 26.677 30.1792 26.677 30.6917 26.677C32.0925 26.677 33.2542 26.8479 34.2108 27.2066C35.065 27.497 35.8508 27.9754 36.5 28.6075C37.0467 29.1541 37.4737 29.8204 37.7471 30.555C38.0016 31.2725 38.1383 32.007 38.1383 32.7758C38.14 34.245 37.7983 35.4579 37.1133 36.4145ZM49.2271 43.06C48.7488 43.7433 48.0808 44.2712 47.3138 44.5821C46.4767 44.9391 45.4517 45.1253 44.22 45.1253C43.4358 45.1253 42.6654 45.0587 41.8983 44.905C41.3004 44.8007 40.7025 44.6145 40.1558 44.3583C40.0363 44.2917 39.9491 44.1721 39.9662 44.0354V41.0629C39.9662 41.0134 39.985 40.9433 40.0362 40.9092C40.0858 40.875 40.1388 40.8921 40.19 40.9262C40.8563 41.3192 41.5567 41.5942 42.3083 41.7633C42.9558 41.9342 43.6391 42.0196 44.3242 42.0196C44.9733 42.0196 45.4346 41.9325 45.7421 41.7787C46.0154 41.6591 46.2033 41.3687 46.2033 41.0612C46.2033 40.8203 46.0667 40.6 45.7933 40.3779C45.52 40.1575 44.958 39.9012 44.1209 39.5732C43.2496 39.2657 42.4484 38.8557 41.695 38.345C41.1605 37.9621 40.7167 37.4664 40.395 36.8929C40.1235 36.3524 39.9891 35.7534 40.0038 35.1487C40.0038 34.4141 40.2088 33.7137 40.5863 33.0816C41.0134 32.3982 41.6438 31.8516 42.3784 31.5099C43.1796 31.1016 44.1875 30.9137 45.4004 30.9137C46.1008 30.9137 46.8183 30.965 47.5188 31.0675C48.0313 31.1358 48.5267 31.2725 48.9879 31.4604C49.0545 31.4775 49.1246 31.5458 49.1587 31.6141C49.1758 31.6825 49.1929 31.7508 49.1929 31.8191V34.6037C49.1929 34.672 49.1587 34.7404 49.1075 34.7745C48.9538 34.8087 48.8683 34.8087 48.8 34.7745C48.2875 34.5012 47.7408 34.3133 47.16 34.1937C46.5279 34.057 45.8958 33.9716 45.2467 33.9716C44.905 33.9545 44.5462 34.0058 44.22 34.0912C43.9996 34.1425 43.81 34.262 43.6904 34.4329C43.605 34.5695 43.5537 34.7404 43.5537 34.8941C43.5537 35.0479 43.622 35.2016 43.7262 35.3383C43.88 35.5262 44.0833 35.68 44.3071 35.7995C44.6983 36.0045 45.11 36.1925 45.5183 36.3633C46.4425 36.6708 47.3308 37.0979 48.1508 37.6104C48.7146 37.9674 49.1758 38.4475 49.4987 39.0283C49.772 39.5715 49.9087 40.1729 49.8916 40.7862C49.9104 41.5908 49.6713 42.392 49.2271 43.06Z" fill="#CCCCCC" fill-opacity="0.35"/>
</g>
<defs>
<clipPath id="clip0_49_4">
<rect width="41" height="41" fill="white" transform="translate(16 16)"/>
</clipPath>
</defs>
</svg>
