<svg width="73" height="73" viewBox="0 0 73 73" fill="none" xmlns="http://www.w3.org/2000/svg">
<g clip-path="url(#clip0_48_123)">
<path d="M28.2765 14.5454H32.9637V16.5054H30.2365V18.4654H32.9637V20.4254H28.2765V14.5454ZM33.9001 14.5454H38.5892V16.2509H35.8619V16.5909H38.5892V20.5109H33.9001V18.7218H36.6274V18.38H33.9001V14.5454ZM39.5274 14.5454H44.2128V16.2509H41.4855V16.5909H44.2128V20.5109H39.5274V18.7218H42.2546V18.38H39.5274V14.5454Z" fill="white" fill-opacity="0.35"/>
<path fill-rule="evenodd" clip-rule="evenodd" d="M36.4383 58.1818L23.8128 54.6764L20.091 23.1218H52.8183L49.0983 54.6727L36.4383 58.1818ZM27.4492 37.4055L27.7965 41.2746H41.2092L40.7601 46.2927L36.4437 47.46H36.4401L32.131 46.2964L31.8546 43.2109H27.9692L28.511 49.2873L36.4383 51.4873L44.3783 49.2873L45.3455 38.4436L45.4401 37.4055L46.1383 29.5709H26.7528L27.1055 33.4418H41.8983L41.5455 37.4055H27.4492Z" fill="white" fill-opacity="0.35"/>
</g>
<rect x="1.09091" y="1" width="70.7273" height="70.7273" rx="11" stroke="white" stroke-opacity="0.35" stroke-width="2"/>
<defs>
<clipPath id="clip0_48_123">
<rect width="43.6364" height="43.6364" fill="white" transform="translate(14.6365 14.5454)"/>
</clipPath>
</defs>
</svg>
