<svg width="73" height="73" viewBox="0 0 73 73" fill="none" xmlns="http://www.w3.org/2000/svg">
<rect x="1" y="1" width="70.7273" height="70.7273" rx="11" stroke="white" stroke-opacity="0.35" stroke-width="2"/>
<path fill-rule="evenodd" clip-rule="evenodd" d="M29.6951 31.2263C29.0026 31.2263 28.3168 31.3627 27.677 31.6277C27.0372 31.8927 26.4558 32.2812 25.9661 32.7709C25.4764 33.2606 25.088 33.842 24.8229 34.4818C24.5579 35.1216 24.4215 35.8074 24.4215 36.4999C24.4215 37.1925 24.5579 37.8782 24.8229 38.518C25.088 39.1579 25.4764 39.7392 25.9661 40.2289C26.4558 40.7186 27.0372 41.1071 27.677 41.3721C28.3168 41.6371 29.0026 41.7735 29.6951 41.7735H34.9688V36.6061C34.9679 36.5353 34.9679 36.4645 34.9688 36.3938V31.2263H29.6951ZM34.9688 28.1638H29.6951C28.2962 28.1638 26.9546 27.6081 25.9654 26.6189C24.9762 25.6297 24.4205 24.2881 24.4205 22.8891C24.4205 21.4902 24.9762 20.1486 25.9654 19.1594C26.9546 18.1702 28.2962 17.6145 29.6951 17.6145H34.9688V28.1638ZM38.0313 17.6145V28.1638H43.3049C44.6858 28.1366 46.0011 27.569 46.9681 26.5827C47.9351 25.5965 48.4768 24.2704 48.4768 22.8891C48.4768 21.5079 47.9351 20.1818 46.9681 19.1956C46.0011 18.2093 44.6858 17.6417 43.3049 17.6145H38.0313ZM43.3049 31.2243C41.9206 31.2241 40.5918 31.7682 39.6051 32.7391C38.6185 33.7101 38.0532 35.0301 38.0313 36.4142V36.5836C38.0482 37.6228 38.3718 38.6339 38.9614 39.4898C39.5511 40.3457 40.3805 41.0082 41.3455 41.3943C42.3105 41.7803 43.368 41.8726 44.3853 41.6595C45.4025 41.4464 46.3342 40.9375 47.0631 40.1967C47.7921 39.4559 48.2859 38.5162 48.4826 37.4956C48.6792 36.475 48.5699 35.4191 48.1683 34.4604C47.7668 33.5018 47.0909 32.6832 46.2256 32.1074C45.3604 31.5316 44.3442 31.2244 43.3049 31.2243ZM29.6951 44.836C28.6516 44.8356 27.6314 45.1447 26.7636 45.7242C25.8957 46.3036 25.2192 47.1274 24.8196 48.0914C24.42 49.0553 24.3152 50.1162 24.5185 51.1397C24.7219 52.1632 25.2242 53.1034 25.9619 53.8414C26.6996 54.5795 27.6397 55.0821 28.6631 55.2859C29.6865 55.4896 30.7474 55.3852 31.7115 54.986C32.6756 54.5867 33.4997 53.9105 34.0795 53.0429C34.6593 52.1753 34.9688 51.1552 34.9688 50.1117V44.836H29.6951Z" fill="#CCCCCC" fill-opacity="0.35"/>
</svg>
