<svg width="74" height="73" viewBox="0 0 74 73" fill="none" xmlns="http://www.w3.org/2000/svg">
<g clip-path="url(#clip0_48_111)">
<mask id="mask0_48_111" style="mask-type:luminance" maskUnits="userSpaceOnUse" x="15" y="14" width="44" height="45">
<path d="M15.3637 14.5454H59.0001V58.1818H15.3637V14.5454Z" fill="white"/>
</mask>
<g mask="url(#mask0_48_111)">
<path d="M24.6001 14.5454H26.5673V16.489H28.3673V14.5454H30.3346V20.429H28.3673V18.46H26.5673V20.429H24.6019L24.6001 14.5454ZM32.9201 16.4963H31.1891V14.5454H36.6201V16.4963H34.8873V20.429H32.9201V16.4963ZM37.4819 14.5454H39.5328L40.7946 16.6127L42.0546 14.5454H44.1055V20.429H42.1473V17.5127L40.7946 19.6054H40.7601L39.4055 17.5145V20.429H37.4819V14.5454ZM45.0837 14.5454H47.0528V18.4854H49.8164V20.4309H45.0837V14.5454Z" fill="white" fill-opacity="0.35"/>
<path fill-rule="evenodd" clip-rule="evenodd" d="M24.5382 54.6764L20.8182 23.1218H53.5455L49.8237 54.6727L37.1637 58.1818L24.5382 54.6764ZM32.0601 37.4036L31.7073 33.44H46.5164L46.8619 29.5709H27.4801L28.5237 41.2746H41.9364L41.4873 46.2927L37.171 47.46H37.1673L32.8582 46.2964L32.5819 43.2109H28.6946L29.2364 49.2873L37.1637 51.4873L45.1037 49.2873L46.071 38.4436L46.1655 37.4055L32.0601 37.4036Z" fill="white" fill-opacity="0.35"/>
</g>
</g>
<rect x="1.81818" y="1" width="70.7273" height="70.7273" rx="11" stroke="white" stroke-opacity="0.35" stroke-width="2"/>
<defs>
<clipPath id="clip0_48_111">
<rect width="43.6364" height="43.6364" fill="white" transform="translate(15.3637 14.5454)"/>
</clipPath>
</defs>
</svg>
