<svg width="73" height="73" viewBox="0 0 73 73" fill="none" xmlns="http://www.w3.org/2000/svg">
<path d="M16 16V56.7273H56.7273V16H16ZM38.1644 47.7629C38.1644 51.7265 35.8371 53.536 32.4465 53.536C29.3833 53.536 27.6102 51.9549 26.7011 50.0364L29.8196 48.1542C30.4204 49.2175 30.9658 50.1178 32.2836 50.1178C33.5375 50.1178 34.3375 49.6262 34.3375 47.7091V34.6996H38.1644V47.7629ZM47.2175 53.536C43.6625 53.536 41.3629 51.8458 40.2444 49.6262L43.3629 47.8269C44.1818 49.1636 45.2538 50.1542 47.136 50.1542C48.7171 50.1542 49.7367 49.3629 49.7367 48.2633C49.7367 46.9542 48.6996 46.4902 46.9455 45.7178L45.9913 45.3091C43.2276 44.1367 41.4007 42.6545 41.4007 39.536C41.4007 36.6633 43.5913 34.4815 47.0007 34.4815C49.4371 34.4815 51.1825 35.3265 52.4378 37.5447L49.456 39.4545C48.8015 38.2822 48.0916 37.8182 46.992 37.8182C45.8749 37.8182 45.1651 38.528 45.1651 39.4545C45.1651 40.6007 45.8749 41.0633 47.52 41.7818L48.4742 42.1905C51.7295 43.5811 53.5564 45.0095 53.5564 48.208C53.5564 51.6451 50.8465 53.5345 47.2189 53.5345L47.2175 53.536Z" fill="#CCCCCC" fill-opacity="0.35"/>
<rect x="1" y="1" width="70.7273" height="70.7273" rx="11" stroke="white" stroke-opacity="0.35" stroke-width="2"/>
</svg>
