<svg width="73" height="73" viewBox="0 0 73 73" fill="none" xmlns="http://www.w3.org/2000/svg">
<g clip-path="url(#clip0_48_128)">
<path d="M57.5354 24.4182C57.5491 24.4755 57.5572 24.5396 57.5572 24.5955V33.9636C57.5576 34.0832 57.5262 34.2007 57.4663 34.3042C57.4064 34.4077 57.3202 34.4934 57.2163 34.5527L49.3536 39.0841V48.0541C49.3539 48.1737 49.3225 48.2912 49.2627 48.3946C49.2028 48.4981 49.1165 48.5839 49.0127 48.6432L32.6 58.0891C32.5617 58.1104 32.5209 58.1268 32.4786 58.1382L32.4363 58.16C32.3222 58.1886 32.2027 58.1886 32.0886 58.16C32.0714 58.1549 32.0549 58.1475 32.0395 58.1382C32.0001 58.126 31.9622 58.1095 31.9263 58.0891L15.5204 48.6432C15.4159 48.5841 15.3287 48.4986 15.2677 48.3952C15.2067 48.2918 15.1739 48.1742 15.1727 48.0541V19.9509C15.1727 19.8936 15.1863 19.8296 15.2013 19.7736C15.2082 19.7518 15.215 19.7382 15.2232 19.7164L15.2654 19.61C15.2722 19.5882 15.2941 19.5746 15.3077 19.5527L15.3718 19.4668C15.3947 19.4527 15.4162 19.4362 15.4359 19.4177C15.4645 19.3959 15.485 19.3755 15.5136 19.3605L23.7172 14.6368C23.821 14.5772 23.9385 14.5459 24.0582 14.5459C24.1778 14.5459 24.2953 14.5772 24.3991 14.6368L32.6095 19.3605C32.6382 19.3741 32.6586 19.3959 32.6804 19.4177L32.7513 19.4668C32.7723 19.4942 32.7914 19.5229 32.8086 19.5527C32.8222 19.5664 32.8441 19.5882 32.8577 19.61L32.9 19.7164C32.9068 19.7382 32.9218 19.7518 32.9218 19.7736C32.9424 19.8304 32.9522 19.8905 32.9504 19.9509V37.5009L39.7822 33.5668V24.5968C39.7848 24.5162 39.8019 24.4368 39.8327 24.3623L39.875 24.2559C39.8886 24.2273 39.9104 24.2136 39.9241 24.1918C39.9459 24.1632 39.9595 24.1346 39.9813 24.1141C40.0032 24.0936 40.0304 24.0786 40.0522 24.065C40.0727 24.0423 40.0967 24.023 40.1232 24.0077L48.3336 19.2841C48.4362 19.2212 48.5542 19.1878 48.6745 19.1878C48.7949 19.1878 48.9129 19.2212 49.0154 19.2841L57.2191 24.0077C57.2477 24.0214 57.2682 24.0432 57.2968 24.065C57.3186 24.0786 57.3391 24.0936 57.3609 24.1141C57.3827 24.1346 57.4032 24.1632 57.425 24.1918C57.4386 24.2136 57.4604 24.2273 57.4672 24.2559C57.4891 24.2914 57.4959 24.3268 57.5095 24.3623C57.5232 24.3759 57.5313 24.3977 57.5382 24.4196L57.5354 24.4182ZM56.1854 33.5655V25.7818L53.3163 27.4291L49.3536 29.7159V37.4996L56.1854 33.5655ZM47.99 47.6559V39.8641L44.0832 42.0868L32.9463 48.4509V56.3136L47.99 47.6559ZM16.5336 21.1359V47.6559L31.5759 56.3136V48.4509L23.7132 43.9973C23.6845 43.9836 23.6641 43.9618 23.6422 43.94C23.6204 43.9264 23.5932 43.9114 23.5782 43.8909H23.5713C23.5495 43.8691 23.5359 43.8418 23.5141 43.82C23.5004 43.7982 23.4786 43.7777 23.465 43.7491C23.4491 43.7223 23.4372 43.6934 23.4295 43.6632C23.4159 43.6346 23.4009 43.6141 23.3941 43.5855C23.3872 43.5568 23.3804 43.5214 23.3804 43.4859C23.3736 43.4573 23.3668 43.4368 23.3668 43.4082V25.07L19.4041 22.7832L16.5336 21.1359ZM24.0554 16.0155L17.2236 19.9496L24.0554 23.8836L30.8872 19.9496L24.0554 16.0155ZM27.6132 40.5759L31.5759 38.2891V21.1373L28.7068 22.7846L24.7372 25.0714V42.2232L27.6132 40.5759ZM48.6718 20.66L41.8318 24.5941L48.6718 28.5282L55.5036 24.5941L48.6718 20.66ZM47.99 29.7159L41.15 25.7818V33.5655L45.1127 35.8523L47.9886 37.4996L47.99 29.7159ZM32.2591 47.2659L47.2945 38.6859L40.4695 34.7518L25.4409 43.4027L32.2591 47.2659Z" fill="white" fill-opacity="0.35"/>
</g>
<rect x="1" y="1" width="70.7273" height="70.7273" rx="11" stroke="white" stroke-opacity="0.35" stroke-width="2"/>
<defs>
<clipPath id="clip0_48_128">
<rect width="43.6364" height="43.6364" fill="white" transform="translate(14.5454 14.5454)"/>
</clipPath>
</defs>
</svg>
