<svg width="73" height="73" viewBox="0 0 73 73" fill="none" xmlns="http://www.w3.org/2000/svg">
<g clip-path="url(#clip0_48_129)">
<path d="M36.3637 24.5454C24.1291 24.5454 14.5455 29.7363 14.5455 36.3636C14.5455 42.9909 24.1291 48.1818 36.3637 48.1818C48.5982 48.1818 58.1818 42.9909 58.1818 36.3636C58.1818 29.7363 48.5982 24.5454 36.3637 24.5454ZM34.0982 28.1818H36.48L35.7237 31.8181H37.8509C39.2 31.8181 40.1055 32.0072 40.6218 32.4781C41.1255 32.9436 41.2782 33.7072 41.0764 34.7472L40.1309 39.0909H37.7091L38.58 35.0745C38.6855 34.5236 38.6437 34.14 38.4582 33.9381C38.2746 33.7363 37.8691 33.6363 37.2618 33.6363H35.3546L34.2037 39.0909H31.8182L34.0982 28.1818ZM23.6364 31.8181H28.4837C30.7946 31.8181 32.1946 33.3672 31.6473 35.6781C31.0109 38.3636 29.3091 39.0909 26.1746 39.0909H24.6764L24.2018 41.8181H21.7927L23.6364 31.8181ZM42.7273 31.8181H47.5746C49.8855 31.8181 51.2855 33.3672 50.7382 35.6781C50.1018 38.3636 48.3982 39.0909 45.2655 39.0909H43.7673L43.2927 41.8181H40.8837L42.7273 31.8181ZM25.7 33.6363L25.0146 37.2727H26.5691C27.9146 37.2727 29.1655 37.12 29.3746 35.1145C29.4527 34.3363 29.1291 33.6363 27.5746 33.6363H25.7ZM44.7909 33.6363L44.1055 37.2727H45.66C47.0055 37.2727 48.2564 37.12 48.4655 35.1145C48.5437 34.3363 48.2218 33.6363 46.6655 33.6363H44.7909Z" fill="white" fill-opacity="0.35"/>
</g>
<rect x="1" y="1" width="70.7273" height="70.7273" rx="11" stroke="white" stroke-opacity="0.35" stroke-width="2"/>
<defs>
<clipPath id="clip0_48_129">
<rect width="43.6364" height="43.6364" fill="white" transform="translate(14.5455 14.5454)"/>
</clipPath>
</defs>
</svg>
