<svg width="74" height="73" viewBox="0 0 74 73" fill="none" xmlns="http://www.w3.org/2000/svg">
<path d="M42.8502 44.5902C41.7095 46.181 40.4665 47.6987 39.1287 49.1342C42.6926 52.525 46.0051 54.1128 47.8435 53.0703C49.6819 52.0299 49.9354 48.4218 48.7233 43.7023C46.9062 44.0992 44.9336 44.4022 42.8502 44.5902ZM40.0596 44.7699C38.4448 44.8355 36.828 44.8355 35.2133 44.7699C36.0142 45.7978 36.828 46.7504 37.6354 47.6175C38.4449 46.7504 39.2565 45.7998 40.0596 44.7699ZM50.796 28.2755C56.4731 29.8716 60.1819 32.525 60.1819 35.7277C60.1819 38.9305 56.4753 41.5838 50.7982 43.18C52.2254 48.8 51.7355 53.2751 48.9086 54.8754C46.0818 56.4778 41.8852 54.656 37.6354 50.6322C33.3877 54.6539 29.1911 56.4778 26.3642 54.8754C23.5353 53.2751 23.0474 48.8 24.4747 43.18C18.7976 41.5838 15.091 38.9305 15.091 35.7277C15.091 32.525 18.7976 29.8716 24.4747 28.2755C23.0474 22.6555 23.5374 18.1804 26.3642 16.578C29.1911 14.9776 33.3877 16.7994 37.6354 20.8232C41.8852 16.7994 46.0818 14.9776 48.9086 16.578C51.7355 18.1804 52.2254 22.6555 50.7982 28.2755M48.7254 27.7574C49.9397 23.0357 49.684 19.4297 47.8456 18.3872C46.0072 17.3468 42.6947 18.9346 39.1329 22.3254C40.4698 23.7611 41.7121 25.2789 42.8523 26.8694C44.9357 27.0575 46.9083 27.3583 48.7254 27.7574ZM26.5496 43.6981C25.3375 48.4197 25.591 52.0257 27.4315 53.0661C29.2699 54.1066 32.5824 52.5209 36.1442 49.1301C34.807 47.6939 33.5646 46.1754 32.4248 44.5839C30.4498 44.4107 28.4881 44.1142 26.5517 43.696M35.2175 26.6856C36.8323 26.62 38.4491 26.62 40.0638 26.6856C39.2965 25.7046 38.4862 24.7566 37.6354 23.8443C36.8259 24.7134 36.0164 25.6661 35.2133 26.6939M32.4227 26.8757C33.5626 25.2849 34.8049 23.7672 36.1421 22.3317C32.5803 18.9388 29.2678 17.351 27.4315 18.3914C25.5931 19.4339 25.3375 23.042 26.5517 27.7615C28.3688 27.3646 30.3414 27.0637 32.4248 26.8736M41.67 42.5845C43.1871 40.4021 44.5358 38.1115 45.7047 35.7319C44.5366 33.3523 43.1886 31.0617 41.6722 28.8793C38.9869 28.6822 36.2903 28.6822 33.6049 28.8793C32.0871 31.0616 30.7377 33.3522 29.5681 35.7319C30.7372 38.1114 32.0858 40.402 33.6028 42.5845C36.2881 42.7814 38.9847 42.7814 41.67 42.5845ZM44.4074 42.3088C45.7175 42.1416 46.9637 41.9285 48.1353 41.6757C47.7522 40.4969 47.3173 39.3349 46.8316 38.193C46.0824 39.597 45.2743 40.9701 44.4095 42.3088M30.8676 29.153C29.5575 29.3201 28.3113 29.5353 27.1396 29.7881C27.5018 30.9079 27.9385 32.0737 28.4455 33.2708C29.1947 31.8667 30.0027 30.4936 30.8676 29.155M27.1396 41.6778C28.3113 41.9306 29.5575 42.1437 30.8676 42.3108C30.0027 40.9722 29.1947 39.5991 28.4455 38.1951C27.9591 39.337 27.5234 40.499 27.1396 41.6778ZM25.0563 41.166C25.6144 39.4235 26.3344 37.5976 27.2078 35.734C26.3736 33.9701 25.6549 32.1557 25.0563 30.302C20.2824 31.6308 17.2233 33.6531 17.2233 35.734C17.2233 37.8149 20.2824 39.8351 25.0563 41.166ZM48.1375 29.7881C46.9048 29.5236 45.661 29.3117 44.4095 29.153C45.2744 30.4916 46.0824 31.8647 46.8316 33.2687C47.3386 32.0737 47.7732 30.9079 48.1375 29.7881ZM50.2187 30.2999C49.6649 32.0423 48.9406 33.8683 48.0672 35.7319C48.9406 37.5955 49.6649 39.4215 50.2187 41.1639C54.9947 39.833 58.0538 37.8128 58.0538 35.7319C58.0538 33.651 54.9947 31.6308 50.2187 30.2999ZM37.6354 39.6575C37.0987 39.6747 36.5641 39.5859 36.0631 39.3963C35.5622 39.2068 35.1053 38.9204 34.7194 38.5541C34.3337 38.1879 34.0269 37.7494 33.8174 37.2645C33.6079 36.7797 33.4999 36.2585 33.4999 35.7319C33.4999 35.2053 33.6079 34.6841 33.8174 34.1993C34.0269 33.7144 34.3337 33.2759 34.7194 32.9097C35.1053 32.5434 35.5622 32.257 36.0631 32.0675C36.5641 31.8779 37.0987 31.7891 37.6354 31.8063C38.6744 31.8395 39.6594 32.2677 40.3824 33.0002C41.1054 33.7328 41.5096 34.7124 41.5096 35.7319C41.5096 36.7514 41.1054 37.731 40.3824 38.4636C39.6594 39.1961 38.6744 39.6243 37.6354 39.6575Z" fill="white" fill-opacity="0.35"/>
<rect x="1.54547" y="1" width="70.7273" height="70.7273" rx="11" stroke="white" stroke-opacity="0.35" stroke-width="2"/>
</svg>
