<svg width="73" height="73" viewBox="0 0 73 73" fill="none" xmlns="http://www.w3.org/2000/svg">
<path d="M36.3637 25.4546C31.5091 25.4546 28.491 27.8728 27.2728 32.7273C29.091 30.3091 31.2182 29.4 33.6364 30C35.0182 30.3455 36.0182 31.3455 37.1091 32.4546C38.891 34.2728 40.9091 36.3637 45.4546 36.3637C50.3091 36.3637 53.3273 33.9455 54.5455 29.091C52.7273 31.5091 50.6001 32.4182 48.1819 31.8182C46.8001 31.4728 45.8182 30.4728 44.7091 29.3637C42.9273 27.5455 40.9091 25.4546 36.3637 25.4546ZM27.2728 36.3637C22.4182 36.3637 19.4001 38.7819 18.1819 43.6364C20.0001 41.2182 22.1273 40.3091 24.5455 40.9091C25.9273 41.2546 26.9091 42.2546 28.0182 43.3637C29.8001 45.1819 31.8182 47.2728 36.3637 47.2728C41.2182 47.2728 44.2364 44.8546 45.4546 40C43.6364 42.4182 41.5091 43.3273 39.091 42.7273C37.7091 42.3819 36.7273 41.3819 35.6182 40.2728C33.8364 38.4546 31.8182 36.3637 27.2728 36.3637Z" fill="white" fill-opacity="0.35"/>
<rect x="1" y="1" width="70.7273" height="70.7273" rx="11" stroke="white" stroke-opacity="0.35" stroke-width="2"/>
</svg>
